<?xml version="1.0" encoding="utf-8"?>
<!-- Generator: Adobe Illustrator 21.0.0, SVG Export Plug-In . SVG Version: 6.00 Build 0)  -->
<svg version="1.1" id="Layer_1" xmlns="http://www.w3.org/2000/svg" xmlns:xlink="http://www.w3.org/1999/xlink" x="0px" y="0px"
	 viewBox="0 0 1046 179" style="enable-background:new 0 0 1046 179;" xml:space="preserve">
<style type="text/css">
	.st0{enable-background:new    ;}
	.st1{fill:#0C0C0C;}
</style>
<g>
	<g class="st0">
		<path class="st1" d="M390.8,136.2l-10.4-12.1c-5.4,5.2-11.3,9-17.8,11.6c-6.1,2.4-13,3.6-20.8,3.6c-10.4,0-18.9-3.1-25.5-9.3
			c-6.7-6.1-10.1-13.9-10.1-23.6c0-7.6,2.2-14.1,6.6-19.6c4.2-5.7,11.2-11.1,20.8-16c-3.6-4-6.4-8.2-8.3-12.4
			c-1.8-3.9-2.7-7.9-2.7-11.8c0-7.8,3.1-14.4,9.3-19.8c6.3-5.3,14.1-7.9,23.4-7.9c10.8,0,19.2,2.6,25.4,7.7
			c6.2,5.4,9.3,12.5,9.3,21.3c0,5.8-1.6,11.1-4.9,16c-3.7,5-8.7,9.6-15.2,13.7l13.8,14.5c1.9-1.6,4.7-4,8.3-7.4
			c2.3-2.2,5-5.2,8.2-8.9l16.8,17.3c-2.3,2.7-4.9,5.8-8.1,9.3c-3.2,3.2-5.9,5.6-8.1,7.4l25.6,26.4H390.8z M364.3,108.1l-19-20.8
			c-3.7,3.2-6.4,6.2-8.1,8.9c-1.8,2.7-2.7,5.4-2.7,8.1c0,3.5,1.2,6.3,3.6,8.5c2.3,2.4,5.2,3.6,8.9,3.6c2.7,0,5.5-0.7,8.2-2.1
			C358.2,113.1,361.2,111,364.3,108.1z M356,63.8l3.8-3.1c2.6-2.1,4.6-4.4,6.1-6.8c1.4-2.1,2.2-4.3,2.2-6.4c0-2.7-0.9-5-2.7-6.9
			c-2-1.8-4.5-2.7-7.4-2.7c-3.4,0-6.1,0.9-8,2.7c-1.9,1.8-2.9,4.4-2.9,7.7c0,1.2,0.4,2.8,1.3,4.8c0.8,1.8,1.7,3.5,3,5.1L356,63.8z"
			/>
	</g>
</g>
<g>
	<g>
		<g class="st0">
			<path class="st1" d="M41.5,138.3H11.3V20.4h33.6c13.1,0,22.3,0.6,27.8,1.9c5.4,1.4,9.9,3.6,13.4,6.6c4.3,3.6,7.6,8.1,9.9,13.4
				c2.3,5.4,3.5,11.5,3.5,18.1c0,7.1-1.2,13.3-3.5,18.5c-2,5.3-5.3,9.7-9.9,13.2c-3.3,2.6-7.2,4.4-11.8,5.6
				c-4.1,1.1-11.3,1.7-21.6,1.7h-5.5h-5.8V138.3z M41.5,73.5h6.1c7.6,0,13-1.1,16.2-3.3c3.1-2,4.6-5.6,4.6-10.7
				c0-4.9-1.5-8.4-4.5-10.5c-3-2.1-8.3-3.2-16-3.2h-6.4V73.5z"/>
			<path class="st1" d="M113.2,138.3V57h28.7v81.3H113.2z M116.8,36h0.2c0-3,1-5.5,3.1-7.4c2.1-2.1,4.6-3.1,7.6-3.1
				c3.1,0,5.7,1,7.7,3c2,2,3,4.5,3,7.6c0,3.1-1,5.7-3.1,7.7c-2,2.1-4.6,3.1-7.6,3.1c-3.1,0-5.6-1.1-7.7-3.3
				C117.9,41.6,116.8,39.1,116.8,36z"/>
			<path class="st1" d="M209.1,47.8c0.1,0.1,0.2,0.2,0.2,0.3c1.9,3.8,3.2,6.9,3.8,9.3c0.5-2.3,1.7-5.2,3.6-8.7
				c0.2-0.5,0.3-0.8,0.5-1l14.2-27.4h38.2l-39.3,56.7l43.5,61.2h-36.5l-20.1-34.9c-0.4-0.8-0.9-1.7-1.4-2.8c-0.5-1.1-0.9-1.7-1-2
				c-0.4-0.9-0.9-2.5-1.6-4.9c-0.6,2.3-1.2,4.1-1.7,5.3c-0.3,0.6-1,2.1-2.3,4.4L189,138.3h-36.5l43.7-61.8l-39.5-56h38.2L209.1,47.8
				z"/>
		</g>
	</g>
</g>
<g>
	<g>
		<g>
			<g class="st0">
				<path class="st1" d="M673,43.7v41.5c0,9.3-0.7,16.1-2.1,20.3c-1.5,4.4-4,8.4-7.6,11.9c-3.4,3.5-7.8,6.2-13.4,8.1
					c-5.3,1.8-11.6,2.7-19,2.7c-7.4,0-13.6-0.9-18.8-2.7c-5.3-1.7-9.9-4.4-13.7-8.1c-3.5-3.3-6-7.2-7.4-11.8
					c-1.4-4.2-2.2-11-2.2-20.5V43.7h27.4v43.4c0,6.8,1.2,11.7,3.5,14.7c2.1,3.1,5.7,4.7,10.9,4.7c5.1,0,8.8-1.5,11-4.5
					c2.2-3,3.3-7.9,3.3-14.8V43.7H673z"/>
				<path class="st1" d="M779.8,84.6c0,6-1.2,11.5-3.5,16.7c-2.4,5.5-5.7,10.2-9.9,14.2c-4.7,4.4-9.6,7.6-14.7,9.6
					c-5.3,2.1-11.1,3.1-17.5,3.1c-6.4,0-12.3-1-17.5-3.1c-5.3-2.1-10.2-5.3-14.7-9.5c-4.5-4.3-7.7-9-9.7-14.2
					c-2.3-5-3.5-10.5-3.5-16.7c0-6,1.2-11.6,3.5-16.8c2.1-5.3,5.4-10,9.7-14.2c4.2-4.1,9.1-7.2,14.7-9.4c5.3-2,11.1-3.1,17.5-3.1
					c6.3,0,12.2,1,17.5,3.1c5.5,2.2,10.4,5.3,14.7,9.4c4.5,4,7.8,8.8,9.9,14.2C778.7,73,779.8,78.6,779.8,84.6z M751.3,84.6
					c0-6.1-1.5-10.8-4.6-14.3c-3.2-3.5-7.3-5.2-12.4-5.2c-5.3,0-9.4,1.7-12.4,5.2c-3.1,3.4-4.6,8.2-4.6,14.3c0,6,1.5,10.7,4.4,14.2
					c3.2,3.5,7.4,5.3,12.6,5.3c5.2,0,9.3-1.8,12.6-5.3C749.8,95.2,751.3,90.5,751.3,84.6z"/>
				<path class="st1" d="M800.8,125l-0.2-61h-12.2V43.7h12.2V19.4h28.5v24.2h12V64h-12v61H800.8z"/>
				<path class="st1" d="M938.9,90.1H877c0.2,6.3,1.7,11.2,4.8,14.5c3.1,3.4,7.6,5.2,13.5,5.2c4.3,0,8-0.8,11-2.5
					c3.1-1.8,5.4-4.2,6.8-7.2l21.6,8.7c-2.5,6.2-7.1,11-13.7,14.3c-6.5,3.4-14.6,5.2-24.1,5.2c-14.2,0-25.6-4-34.1-11.9
					c-8.5-7.7-12.8-18.1-12.8-31c0-12.6,4.3-23.2,12.8-31.6c8.5-8.3,19.4-12.5,32.5-12.5c13.4,0,24,4.2,31.8,12.6
					c4,4.3,6.9,9.4,8.9,15.2c1.9,5.8,2.9,12.4,2.9,19.8V90.1z M910.6,73.9c-0.5-4.5-2.2-8.2-5.2-11c-3-2.8-6.7-4.3-11-4.3
					c-4.6,0-8.3,1.3-11.1,3.8c-3,2.8-4.8,6.7-5.6,11.5H910.6z"/>
				<path class="st1" d="M947.7,118.2l6-21.9c4.2,3.7,8.8,6.5,13.9,8.4c5,2,10,3,15.1,3c3.6,0,6.4-0.6,8.2-1.8
					c1.9-1.1,2.8-2.8,2.8-4.9c0-3.6-3.8-6.3-11.4-8c-2.6-0.6-4.6-1.1-6-1.5c-8.8-2.6-15-5.7-18.6-9.4c-4-3.8-6-8.8-6-14.8
					c0-7.8,3-14.2,8.9-18.9c5.7-4.7,13.8-7.1,24.1-7.1c5,0,10.3,0.6,15.9,1.8c4.7,1,10.2,2.9,16.5,5.7l-6,19.8
					c-3.9-2.6-7.8-4.6-11.7-5.9c-3.7-1.3-7.6-2-11.7-2c-3.3,0-5.8,0.5-7.5,1.5c-1.6,1-2.4,2.4-2.4,4.4c0,2.8,3.8,5.2,11.4,7.2
					c2.5,0.8,3.7,1.1,3.8,1.1c9.9,2.8,16.8,6.1,20.8,9.9c3.9,4,5.8,9.3,5.8,15.7c0,8.3-3.2,15-9.6,20.1c-6.5,5.1-15,7.7-25.4,7.7
					c-7.2,0-13.8-0.8-19.8-2.5S953.2,121.6,947.7,118.2z"/>
			</g>
		</g>
	</g>
	<g>
		<path class="st1" d="M558.7,169.3l-18.3-5.1c-1.1-0.3-2-0.6-2.8-0.8c-2-0.5-3.6-0.9-5.3-1.6l-0.3-0.1c-4.8-2.1-9.6-4.1-14.4-6.2
			c-16-6.9-32.6-14-48.9-21.2c-14.1-6.1-21.6-17.7-21.6-33.3V88.7c0-4,0-8,0-12c0-7.8,0-16,0-24c0-22.5,15.4-39,37.5-40.1
			c14.4-0.7,27.4-0.7,39.7,0c21,1,36.9,17.9,37,39.2c0,4.9,0,9.8-0.1,14.6c-0.1,8-0.2,16.2,0.2,24.2l0,0.6
			c1.1,19.5-5.9,33.4-20.8,41.5l0.4,0.8c2.9,5.9,5.9,11.9,9.2,18.7L558.7,169.3z M505.1,29.1c-6.3,0-12.9,0.2-19.7,0.5
			c-12.9,0.7-21.3,9.8-21.3,23.2c-0.1,8,0,16.1,0,23.9c0,4,0,8,0,12V101c0,8.8,3.5,14.3,11.4,17.7c16.2,7.2,32.8,14.3,48.8,21.2
			c0.4,0.2,0.7,0.3,1.1,0.5l-8.3-16.8l9.2-3.1c13.8-4.7,19.1-12.9,18.1-28.4l0-0.8c-0.4-8.4-0.3-16.8-0.2-25
			c0.1-4.7,0.1-9.5,0.1-14.2c-0.1-12.2-9.1-21.8-20.9-22.4C517.5,29.3,511.4,29.1,505.1,29.1z"/>
		<path class="st1" d="M529,128.5c4.5,9.1,8.6,17.4,13.6,27.5c-3.6-1-5.5-1.4-7.3-2.1c-21.1-9.1-42.2-18.1-63.2-27.4
			c-11-4.8-16.5-13.4-16.5-25.5c0-4.1,0-8.2,0-12.3c9.7-3.8,20.8-6.8,30.7-4.3c16.1,4,15.6,13.1,41.7,10.1
			c10.3-1.2,18.7-2.4,24.9-3.4c0,0.2,0,0.3,0,0.5C554,109.6,547.4,122.3,529,128.5z"/>
		<circle class="st1" cx="515.2" cy="65.7" r="10.1"/>
	</g>
</g>
</svg>
