<?xml version="1.0" encoding="utf-8"?>
<!-- Generator: Adobe Illustrator 21.0.0, SVG Export Plug-In . SVG Version: 6.00 Build 0)  -->
<svg version="1.1" id="Layer_1" xmlns="http://www.w3.org/2000/svg" xmlns:xlink="http://www.w3.org/1999/xlink" x="0px" y="0px"
	 viewBox="0 0 233 231" style="enable-background:new 0 0 233 231;" xml:space="preserve">
<style type="text/css">
	.st0{fill:#FFFFFF;}
</style>
<title>1</title>
<path class="st0" d="M192.5,229.2h-152c-10,0-19.5-3.9-26.6-11s-11-16.5-11-26.6v-43.4c0-8.8,7.1-15.9,15.9-15.9s15.9,7.1,15.9,15.9
	v43.4c0,1.6,0.6,3,1.7,4.1c1.1,1.1,2.6,1.7,4.1,1.7h152c1.6,0,3-0.6,4.1-1.7c1.1-1.1,1.7-2.6,1.7-4.1v-43.4
	c0-8.8,7.1-15.9,15.9-15.9c8.8,0,15.9,7.1,15.9,15.9v43.4c0,10-3.9,19.5-11,26.6C212,225.3,202.6,229.2,192.5,229.2z"/>
<path class="st0" d="M116.5,164c-4.1,0-8.1-1.5-11.2-4.6L51,105.1c-6.2-6.2-6.2-16.2,0-22.4s16.2-6.2,22.4,0l43.1,43.1l43.1-43.1
	c6.2-6.2,16.2-6.2,22.4,0s6.2,16.2,0,22.4l-54.3,54.3C124.6,162.5,120.6,164,116.5,164z"/>
<path class="st0" d="M116.5,164c-8.8,0-15.9-7.1-15.9-15.9V17.9c0-8.8,7.1-15.9,15.9-15.9s15.9,7.1,15.9,15.9v130.3
	C132.4,156.9,125.3,164,116.5,164z"/>
</svg>
