<?xml version="1.0" encoding="utf-8"?>
<!-- Generator: Adobe Illustrator 21.0.0, SVG Export Plug-In . SVG Version: 6.00 Build 0)  -->
<svg version="1.1" id="Layer_1" xmlns="http://www.w3.org/2000/svg" xmlns:xlink="http://www.w3.org/1999/xlink" x="0px" y="0px"
	 viewBox="0 0 233 231" style="enable-background:new 0 0 233 231;" xml:space="preserve">
<style type="text/css">
	.st0{fill:#FFFFFF;}
</style>
<title>1</title>
<path class="st0" d="M31.2,222.9c0,1.2,0.3,2.4,0.9,3.5c0.6,1.1,1.5,2,2.6,2.6c1.1,0.6,2.3,1,3.5,1c1.2,0,2.5-0.3,3.5-0.9l74.8-40.8
	l74.8,40.8c1.1,0.6,2.3,0.9,3.5,0.9c1.2,0,2.4-0.4,3.5-1s1.9-1.5,2.6-2.6c0.6-1.1,0.9-2.3,0.9-3.5V30.9c0-7.5-3-14.8-8.3-20.1
	c-5.3-5.3-12.6-8.3-20.1-8.3H59.6c-7.5,0-14.8,3-20.1,8.3c-5.3,5.3-8.3,12.6-8.3,20.1V222.9z M116.5,65.2c19.7-20.3,69,15.2,0,60.8
	C47.5,80.4,96.8,45,116.5,65.2L116.5,65.2z"/>
</svg>
