<svg id="Layer_1" data-name="Layer 1" xmlns="http://www.w3.org/2000/svg" viewBox="0 0 284 256"><defs><style>.cls-1{fill:#643939;}</style></defs><title>1</title><path class="cls-1" d="M130.11,62.75a24.47,24.47,0,1,0,17.3,7.17,24.47,24.47,0,0,0-17.3-7.17"/><path class="cls-1" d="M27.81,193.25V46.44A16.31,16.31,0,0,1,44.12,30.12H239.87a16.31,16.31,0,0,1,16.31,16.31v106l-61.61-31.76a8.16,8.16,0,0,0-9.41,1.52l-60.52,60.52L81.25,153.84a8.16,8.16,0,0,0-4.52-1.37q-.4,0-.8,0a8.15,8.15,0,0,0-5,2.34l-43.16,38.4M239.87,13.81H44.12A32.62,32.62,0,0,0,11.5,46.44V209.56a32.62,32.62,0,0,0,32.62,32.63H239.87a32.63,32.63,0,0,0,32.63-32.63V46.44a32.63,32.63,0,0,0-32.63-32.62"/></svg>