<?xml version="1.0" encoding="utf-8"?>
<!-- Generator: Adobe Illustrator 21.0.0, SVG Export Plug-In . SVG Version: 6.00 Build 0)  -->
<svg version="1.1" id="Layer_1" xmlns="http://www.w3.org/2000/svg" xmlns:xlink="http://www.w3.org/1999/xlink" x="0px" y="0px"
	 viewBox="0 0 284 389" style="enable-background:new 0 0 284 389;" xml:space="preserve">
<style type="text/css">
	.st0{fill:#643939;}
</style>
<g>
	<path class="st0" d="M232.8,299.1l-1-2c36.5-19.8,53.6-53.8,50.9-101.5v-1.5c-1-19.6-0.7-39.6-0.5-59.2c0.2-11.7,0.2-23.7,0.2-35.7
		c-0.2-52.1-39.1-93.5-90.5-95.9c-30.1-1.7-61.9-1.7-97.1,0C40.9,6.1,3.1,46.5,3.1,101.4c0,19.6,0,39.6,0,58.7c0,9.8,0,19.6,0,29.4
		v30.1c0,38.2,18.3,66.6,52.8,81.5c39.7,17.6,80.5,35,119.5,51.9c11.7,5.2,23.5,10.1,35.2,15.2l0.7,0.2c4.2,1.7,8.1,2.7,13,3.9
		c2,0.5,4.2,1.4,6.9,2l44.8,12.5l-20.8-42.1C247.1,328.2,239.9,313.5,232.8,299.1z M44.6,101.9c0-32.8,20.5-55.1,52.1-56.8
		c16.6-0.7,32.8-1.2,48.2-1.2c15.6,0,30.4,0.5,44.8,1.5c28.7,1.5,50.9,25,51.1,54.8c0,11.5,0,23.2-0.2,34.7
		c-0.2,20.1-0.5,40.6,0.5,61.2v2c0,0.2,0,0.5,0,0.7c-11.7,1.7-25,3.4-40.2,5.2c-63.7,7.3-62.6-14.9-102-24.7
		c-17.4-4.4-36.2-1.9-54.3,3.4c0-7.4,0-14.9,0-22.3C44.6,141.3,44.4,121.6,44.6,101.9z"/>
	<circle class="st0" cx="169.7" cy="133.4" r="24.7"/>
</g>
</svg>
