<?xml version="1.0" encoding="utf-8"?>
<!-- Generator: Adobe Illustrator 21.0.0, SVG Export Plug-In . SVG Version: 6.00 Build 0)  -->
<svg version="1.1" id="Layer_1" xmlns="http://www.w3.org/2000/svg" xmlns:xlink="http://www.w3.org/1999/xlink" x="0px" y="0px"
	 viewBox="0 0 284 389" style="enable-background:new 0 0 284 389;" xml:space="preserve">
<style type="text/css">
	.st0{fill:#DBB3B3;}
</style>
<g>
	<path class="st0" d="M232,298.6l-1-2c36.4-19.7,53.4-53.5,50.7-101V194c-1-19.5-0.7-39.4-0.5-58.9c0.2-11.6,0.2-23.6,0.2-35.5
		c-0.2-51.9-38.9-93.1-90.1-95.5c-30-1.7-61.6-1.7-96.7,0C40.8,6.8,3.3,47,3.3,101.8c0,19.5,0,39.4,0,58.4c0,9.8,0,19.5,0,29.3v30
		c0,38.1,18.2,66.3,52.5,81.2c39.6,17.5,80.1,34.9,119,51.7c11.6,5.2,23.4,10.1,35,15.2l0.7,0.2c4.2,1.7,8.1,2.7,13,3.9
		c2,0.5,4.2,1.3,6.9,2l44.6,12.5l-20.7-41.9C246.3,327.6,239,312.9,232,298.6z M44.6,102.3c0-32.7,20.4-54.9,51.9-56.6
		c16.5-0.7,32.7-1.2,48-1.2c15.5,0,30.3,0.5,44.6,1.5c28.6,1.5,50.7,24.9,50.9,54.6c0,11.4,0,23.1-0.2,34.5c-0.2,20-0.5,40.4,0.5,61
		v2c0,0.2,0,0.5,0,0.7c-11.6,1.7-24.9,3.4-40.1,5.2c-63.5,7.2-62.3-14.8-101.5-24.6c-17.3-4.4-36-1.9-54.1,3.4c0-7.4,0-14.8,0-22.2
		C44.6,141.5,44.4,121.8,44.6,102.3z"/>
	<circle class="st0" cx="169.2" cy="133.6" r="24.6"/>
</g>
</svg>
