<?xml version="1.0" encoding="utf-8"?>
<!-- Generator: Adobe Illustrator 21.0.0, SVG Export Plug-In . SVG Version: 6.00 Build 0)  -->
<svg version="1.1" id="Layer_1" xmlns="http://www.w3.org/2000/svg" xmlns:xlink="http://www.w3.org/1999/xlink" x="0px" y="0px"
	 viewBox="0 0 233 231" style="enable-background:new 0 0 233 231;" xml:space="preserve">
<style type="text/css">
	.st0{fill:#FFFFFF;}
</style>
<title>1</title>
<g>
	<path class="st0" d="M116.5,8.1c-2.1,0-4.2,0.8-5.7,2.4L7.5,113.7c-6.3,6.3-6.3,16.4,0,22.7c3,3,7.1,4.7,11.4,4.7h10.9v73.7
		c0,4.4,3.6,8,8,8h66.7v-56.2h28.1v56.2h62.7c4.4,0,8-3.6,8-8v-73.7h10.9c8.9,0,16.1-7.2,16.1-16c0-4.3-1.7-8.4-4.7-11.4L122.2,10.5
		C120.7,9,118.6,8.1,116.5,8.1"/>
</g>
</svg>
