<?xml version="1.0" encoding="utf-8"?>
<!-- Generator: Adobe Illustrator 21.0.0, SVG Export Plug-In . SVG Version: 6.00 Build 0)  -->
<svg version="1.1" id="Layer_1" xmlns="http://www.w3.org/2000/svg" xmlns:xlink="http://www.w3.org/1999/xlink" x="0px" y="0px"
	 viewBox="0 0 233 231" style="enable-background:new 0 0 233 231;" xml:space="preserve">
<style type="text/css">
	.st0{fill:#FFFFFF;}
</style>
<title>1</title>
<path class="st0" d="M211,107.5c2.7-3.2,5.7-5.1,9.7-5c7.9,0.2,13.6,8.8,9.5,15.5c-7.6,12.3-15.7,24.2-24.1,35.9
	c-4.4,6.1-14,5.6-19,0c-0.7-0.8-1.5-1.7-2.1-2.6c-6.9-10.4-13.9-20.7-20.8-31.1c-4.2-6.4-2.1-14.2,4.6-16.8
	c4.5-1.8,8.5-0.7,12.4,2.9c-0.3-2.1-0.4-3.8-0.8-5.4c-5.5-24.9-19.6-43.2-42.8-53.9c-22.5-10.3-45.1-9.5-66.9,2.1
	C51,59.6,38.2,76,33,97.8c-6,25.4-0.3,48.2,16.9,67.9c14.4,16.3,32.7,24.7,54.4,25.4c5.9,0.2,11,1.7,14.2,7c3,4.9,3.2,10.1,0.3,15.1
	c-2.9,5-7.5,7.3-13.3,7.3C56,220.1,12.9,184.4,3.4,135.7C-7.4,80,28.1,25.5,83.5,13.3c29.8-6.6,57.7-1.1,82.8,16.5
	c23.7,16.6,38,39.4,43.3,67.9C210.2,100.8,210.5,103.9,211,107.5z"/>
</svg>
